# xmcd
#
# Track frame offsets:
#	150
#	44368
#	81170
#	112000
#	141223
#	184798
#	214645
#	248045
#
# Disc length: 3663
#
# Revision: 5
# Processed by: cddbd v1.5.1PL0 Copyright (c) Steve Scherf et al.
# Submitted via: CDex 1.51
# Normalized: r4:DSETVAR1
#
DISCID=6d0e4d08
DTITLE=Various Artist - West End Story
DYEAR=1900
DGENRE=Disco
TTITLE0=Heartbeat - Taana Gardner
TTITLE1=Let's Go Dancin - Sparque
TTITLE2=Heat You Up(Melt You Down) - Shirley Lites
TTITLE3=Do It To The Music - Raw Silk
TTITLE4=Can't You Feel It - Michelle
TTITLE5=Rescue Me - Sybil Thomas
TTITLE6=Time - Stone
TTITLE7=You Can't Have Your Cake And Eat It Too - B. T. (Brenda Taylor)
EXTD=
EXTT0=
EXTT1=
EXTT2=
EXTT3=
EXTT4=
EXTT5=
EXTT6=
EXTT7=
PLAYORDER=
